<?xml version="1.0" encoding="utf-8" standalone="no"?>
<!DOCTYPE svg PUBLIC "-//W3C//DTD SVG 1.1//EN"
  "http://www.w3.org/Graphics/SVG/1.1/DTD/svg11.dtd">
<svg xmlns:xlink="http://www.w3.org/1999/xlink" width="720pt" height="144pt" viewBox="0 0 720 144" xmlns="http://www.w3.org/2000/svg" version="1.1">
 <metadata>
  <rdf:RDF xmlns:dc="http://purl.org/dc/elements/1.1/" xmlns:cc="http://creativecommons.org/ns#" xmlns:rdf="http://www.w3.org/1999/02/22-rdf-syntax-ns#">
   <cc:Work>
    <dc:type rdf:resource="http://purl.org/dc/dcmitype/StillImage"/>
    <dc:date>2025-05-20T20:29:51.229287</dc:date>
    <dc:format>image/svg+xml</dc:format>
    <dc:creator>
     <cc:Agent>
      <dc:title>Matplotlib v3.10.1, https://matplotlib.org/</dc:title>
     </cc:Agent>
    </dc:creator>
   </cc:Work>
  </rdf:RDF>
 </metadata>
 <defs>
  <style type="text/css">*{stroke-linejoin: round; stroke-linecap: butt}</style>
 </defs>
 <g id="figure_1">
  <g id="patch_1">
   <path d="M 0 144 
L 720 144 
L 720 0 
L 0 0 
z
" style="fill: #ffffff"/>
  </g>
  <g id="axes_1">
   <g id="patch_2">
    <path d="M 90 128.16 
L 648 128.16 
L 648 17.28 
L 90 17.28 
z
" style="fill: #ffffff"/>
   </g>
   <g id="matplotlib.axis_1">
    <g id="xtick_1">
     <g id="line2d_1">
      <path d="M 115.363636 128.16 
L 115.363636 17.28 
" clip-path="url(#p2772dc4c45)" style="fill: none; stroke: #cccccc; stroke-linecap: round"/>
     </g>
     <g id="text_1">
      <!-- 0 -->
      <g style="fill: #262626" transform="translate(112.305121 145.533594) scale(0.11 -0.11)">
       <defs>
        <path id="ArialMT-30" d="M 266 2259 
Q 266 3072 433 3567 
Q 600 4063 929 4331 
Q 1259 4600 1759 4600 
Q 2128 4600 2406 4451 
Q 2684 4303 2865 4023 
Q 3047 3744 3150 3342 
Q 3253 2941 3253 2259 
Q 3253 1453 3087 958 
Q 2922 463 2592 192 
Q 2263 -78 1759 -78 
Q 1097 -78 719 397 
Q 266 969 266 2259 
z
M 844 2259 
Q 844 1131 1108 757 
Q 1372 384 1759 384 
Q 2147 384 2411 759 
Q 2675 1134 2675 2259 
Q 2675 3391 2411 3762 
Q 2147 4134 1753 4134 
Q 1366 4134 1134 3806 
Q 844 3388 844 2259 
z
" transform="scale(0.015625)"/>
       </defs>
       <use xlink:href="#ArialMT-30"/>
      </g>
     </g>
    </g>
    <g id="xtick_2">
     <g id="line2d_2">
      <path d="M 163.675325 128.16 
L 163.675325 17.28 
" clip-path="url(#p2772dc4c45)" style="fill: none; stroke: #cccccc; stroke-linecap: round"/>
     </g>
     <g id="text_2">
      <!-- 2 -->
      <g style="fill: #262626" transform="translate(160.616809 145.533594) scale(0.11 -0.11)">
       <defs>
        <path id="ArialMT-32" d="M 3222 541 
L 3222 0 
L 194 0 
Q 188 203 259 391 
Q 375 700 629 1000 
Q 884 1300 1366 1694 
Q 2113 2306 2375 2664 
Q 2638 3022 2638 3341 
Q 2638 3675 2398 3904 
Q 2159 4134 1775 4134 
Q 1369 4134 1125 3890 
Q 881 3647 878 3216 
L 300 3275 
Q 359 3922 746 4261 
Q 1134 4600 1788 4600 
Q 2447 4600 2831 4234 
Q 3216 3869 3216 3328 
Q 3216 3053 3103 2787 
Q 2991 2522 2730 2228 
Q 2469 1934 1863 1422 
Q 1356 997 1212 845 
Q 1069 694 975 541 
L 3222 541 
z
" transform="scale(0.015625)"/>
       </defs>
       <use xlink:href="#ArialMT-32"/>
      </g>
     </g>
    </g>
    <g id="xtick_3">
     <g id="line2d_3">
      <path d="M 211.987013 128.16 
L 211.987013 17.28 
" clip-path="url(#p2772dc4c45)" style="fill: none; stroke: #cccccc; stroke-linecap: round"/>
     </g>
     <g id="text_3">
      <!-- 4 -->
      <g style="fill: #262626" transform="translate(208.928497 145.533594) scale(0.11 -0.11)">
       <defs>
        <path id="ArialMT-34" d="M 2069 0 
L 2069 1097 
L 81 1097 
L 81 1613 
L 2172 4581 
L 2631 4581 
L 2631 1613 
L 3250 1613 
L 3250 1097 
L 2631 1097 
L 2631 0 
L 2069 0 
z
M 2069 1613 
L 2069 3678 
L 634 1613 
L 2069 1613 
z
" transform="scale(0.015625)"/>
       </defs>
       <use xlink:href="#ArialMT-34"/>
      </g>
     </g>
    </g>
    <g id="xtick_4">
     <g id="line2d_4">
      <path d="M 260.298701 128.16 
L 260.298701 17.28 
" clip-path="url(#p2772dc4c45)" style="fill: none; stroke: #cccccc; stroke-linecap: round"/>
     </g>
     <g id="text_4">
      <!-- 6 -->
      <g style="fill: #262626" transform="translate(257.240186 145.533594) scale(0.11 -0.11)">
       <defs>
        <path id="ArialMT-36" d="M 3184 3459 
L 2625 3416 
Q 2550 3747 2413 3897 
Q 2184 4138 1850 4138 
Q 1581 4138 1378 3988 
Q 1113 3794 959 3422 
Q 806 3050 800 2363 
Q 1003 2672 1297 2822 
Q 1591 2972 1913 2972 
Q 2475 2972 2870 2558 
Q 3266 2144 3266 1488 
Q 3266 1056 3080 686 
Q 2894 316 2569 119 
Q 2244 -78 1831 -78 
Q 1128 -78 684 439 
Q 241 956 241 2144 
Q 241 3472 731 4075 
Q 1159 4600 1884 4600 
Q 2425 4600 2770 4297 
Q 3116 3994 3184 3459 
z
M 888 1484 
Q 888 1194 1011 928 
Q 1134 663 1356 523 
Q 1578 384 1822 384 
Q 2178 384 2434 671 
Q 2691 959 2691 1453 
Q 2691 1928 2437 2201 
Q 2184 2475 1800 2475 
Q 1419 2475 1153 2201 
Q 888 1928 888 1484 
z
" transform="scale(0.015625)"/>
       </defs>
       <use xlink:href="#ArialMT-36"/>
      </g>
     </g>
    </g>
    <g id="xtick_5">
     <g id="line2d_5">
      <path d="M 308.61039 128.16 
L 308.61039 17.28 
" clip-path="url(#p2772dc4c45)" style="fill: none; stroke: #cccccc; stroke-linecap: round"/>
     </g>
     <g id="text_5">
      <!-- 8 -->
      <g style="fill: #262626" transform="translate(305.551874 145.533594) scale(0.11 -0.11)">
       <defs>
        <path id="ArialMT-38" d="M 1131 2484 
Q 781 2613 612 2850 
Q 444 3088 444 3419 
Q 444 3919 803 4259 
Q 1163 4600 1759 4600 
Q 2359 4600 2725 4251 
Q 3091 3903 3091 3403 
Q 3091 3084 2923 2848 
Q 2756 2613 2416 2484 
Q 2838 2347 3058 2040 
Q 3278 1734 3278 1309 
Q 3278 722 2862 322 
Q 2447 -78 1769 -78 
Q 1091 -78 675 323 
Q 259 725 259 1325 
Q 259 1772 486 2073 
Q 713 2375 1131 2484 
z
M 1019 3438 
Q 1019 3113 1228 2906 
Q 1438 2700 1772 2700 
Q 2097 2700 2305 2904 
Q 2513 3109 2513 3406 
Q 2513 3716 2298 3927 
Q 2084 4138 1766 4138 
Q 1444 4138 1231 3931 
Q 1019 3725 1019 3438 
z
M 838 1322 
Q 838 1081 952 856 
Q 1066 631 1291 507 
Q 1516 384 1775 384 
Q 2178 384 2440 643 
Q 2703 903 2703 1303 
Q 2703 1709 2433 1975 
Q 2163 2241 1756 2241 
Q 1359 2241 1098 1978 
Q 838 1716 838 1322 
z
" transform="scale(0.015625)"/>
       </defs>
       <use xlink:href="#ArialMT-38"/>
      </g>
     </g>
    </g>
    <g id="xtick_6">
     <g id="line2d_6">
      <path d="M 356.922078 128.16 
L 356.922078 17.28 
" clip-path="url(#p2772dc4c45)" style="fill: none; stroke: #cccccc; stroke-linecap: round"/>
     </g>
     <g id="text_6">
      <!-- 10 -->
      <g style="fill: #262626" transform="translate(350.805047 145.533594) scale(0.11 -0.11)">
       <defs>
        <path id="ArialMT-31" d="M 2384 0 
L 1822 0 
L 1822 3584 
Q 1619 3391 1289 3197 
Q 959 3003 697 2906 
L 697 3450 
Q 1169 3672 1522 3987 
Q 1875 4303 2022 4600 
L 2384 4600 
L 2384 0 
z
" transform="scale(0.015625)"/>
       </defs>
       <use xlink:href="#ArialMT-31"/>
       <use xlink:href="#ArialMT-30" transform="translate(55.615234 0)"/>
      </g>
     </g>
    </g>
    <g id="xtick_7">
     <g id="line2d_7">
      <path d="M 405.233766 128.16 
L 405.233766 17.28 
" clip-path="url(#p2772dc4c45)" style="fill: none; stroke: #cccccc; stroke-linecap: round"/>
     </g>
     <g id="text_7">
      <!-- 12 -->
      <g style="fill: #262626" transform="translate(399.116735 145.533594) scale(0.11 -0.11)">
       <use xlink:href="#ArialMT-31"/>
       <use xlink:href="#ArialMT-32" transform="translate(55.615234 0)"/>
      </g>
     </g>
    </g>
    <g id="xtick_8">
     <g id="line2d_8">
      <path d="M 453.545455 128.16 
L 453.545455 17.28 
" clip-path="url(#p2772dc4c45)" style="fill: none; stroke: #cccccc; stroke-linecap: round"/>
     </g>
     <g id="text_8">
      <!-- 14 -->
      <g style="fill: #262626" transform="translate(447.428423 145.533594) scale(0.11 -0.11)">
       <use xlink:href="#ArialMT-31"/>
       <use xlink:href="#ArialMT-34" transform="translate(55.615234 0)"/>
      </g>
     </g>
    </g>
    <g id="xtick_9">
     <g id="line2d_9">
      <path d="M 501.857143 128.16 
L 501.857143 17.28 
" clip-path="url(#p2772dc4c45)" style="fill: none; stroke: #cccccc; stroke-linecap: round"/>
     </g>
     <g id="text_9">
      <!-- 16 -->
      <g style="fill: #262626" transform="translate(495.740112 145.533594) scale(0.11 -0.11)">
       <use xlink:href="#ArialMT-31"/>
       <use xlink:href="#ArialMT-36" transform="translate(55.615234 0)"/>
      </g>
     </g>
    </g>
    <g id="xtick_10">
     <g id="line2d_10">
      <path d="M 550.168831 128.16 
L 550.168831 17.28 
" clip-path="url(#p2772dc4c45)" style="fill: none; stroke: #cccccc; stroke-linecap: round"/>
     </g>
     <g id="text_10">
      <!-- 18 -->
      <g style="fill: #262626" transform="translate(544.0518 145.533594) scale(0.11 -0.11)">
       <use xlink:href="#ArialMT-31"/>
       <use xlink:href="#ArialMT-38" transform="translate(55.615234 0)"/>
      </g>
     </g>
    </g>
    <g id="xtick_11">
     <g id="line2d_11">
      <path d="M 598.480519 128.16 
L 598.480519 17.28 
" clip-path="url(#p2772dc4c45)" style="fill: none; stroke: #cccccc; stroke-linecap: round"/>
     </g>
     <g id="text_11">
      <!-- 20 -->
      <g style="fill: #262626" transform="translate(592.363488 145.533594) scale(0.11 -0.11)">
       <use xlink:href="#ArialMT-32"/>
       <use xlink:href="#ArialMT-30" transform="translate(55.615234 0)"/>
      </g>
     </g>
    </g>
    <g id="xtick_12">
     <g id="line2d_12">
      <path d="M 646.792208 128.16 
L 646.792208 17.28 
" clip-path="url(#p2772dc4c45)" style="fill: none; stroke: #cccccc; stroke-linecap: round"/>
     </g>
     <g id="text_12">
      <!-- 22 -->
      <g style="fill: #262626" transform="translate(640.675177 145.533594) scale(0.11 -0.11)">
       <use xlink:href="#ArialMT-32"/>
       <use xlink:href="#ArialMT-32" transform="translate(55.615234 0)"/>
      </g>
     </g>
    </g>
    <g id="text_13">
     <!-- Time (Days) -->
     <g style="fill: #262626" transform="translate(336.560625 160.455469) scale(0.12 -0.12)">
      <defs>
       <path id="ArialMT-54" d="M 1659 0 
L 1659 4041 
L 150 4041 
L 150 4581 
L 3781 4581 
L 3781 4041 
L 2266 4041 
L 2266 0 
L 1659 0 
z
" transform="scale(0.015625)"/>
       <path id="ArialMT-69" d="M 425 3934 
L 425 4581 
L 988 4581 
L 988 3934 
L 425 3934 
z
M 425 0 
L 425 3319 
L 988 3319 
L 988 0 
L 425 0 
z
" transform="scale(0.015625)"/>
       <path id="ArialMT-6d" d="M 422 0 
L 422 3319 
L 925 3319 
L 925 2853 
Q 1081 3097 1340 3245 
Q 1600 3394 1931 3394 
Q 2300 3394 2536 3241 
Q 2772 3088 2869 2813 
Q 3263 3394 3894 3394 
Q 4388 3394 4653 3120 
Q 4919 2847 4919 2278 
L 4919 0 
L 4359 0 
L 4359 2091 
Q 4359 2428 4304 2576 
Q 4250 2725 4106 2815 
Q 3963 2906 3769 2906 
Q 3419 2906 3187 2673 
Q 2956 2441 2956 1928 
L 2956 0 
L 2394 0 
L 2394 2156 
Q 2394 2531 2256 2718 
Q 2119 2906 1806 2906 
Q 1569 2906 1367 2781 
Q 1166 2656 1075 2415 
Q 984 2175 984 1722 
L 984 0 
L 422 0 
z
" transform="scale(0.015625)"/>
       <path id="ArialMT-65" d="M 2694 1069 
L 3275 997 
Q 3138 488 2766 206 
Q 2394 -75 1816 -75 
Q 1088 -75 661 373 
Q 234 822 234 1631 
Q 234 2469 665 2931 
Q 1097 3394 1784 3394 
Q 2450 3394 2872 2941 
Q 3294 2488 3294 1666 
Q 3294 1616 3291 1516 
L 816 1516 
Q 847 969 1125 678 
Q 1403 388 1819 388 
Q 2128 388 2347 550 
Q 2566 713 2694 1069 
z
M 847 1978 
L 2700 1978 
Q 2663 2397 2488 2606 
Q 2219 2931 1791 2931 
Q 1403 2931 1139 2672 
Q 875 2413 847 1978 
z
" transform="scale(0.015625)"/>
       <path id="ArialMT-20" transform="scale(0.015625)"/>
       <path id="ArialMT-28" d="M 1497 -1347 
Q 1031 -759 709 28 
Q 388 816 388 1659 
Q 388 2403 628 3084 
Q 909 3875 1497 4659 
L 1900 4659 
Q 1522 4009 1400 3731 
Q 1209 3300 1100 2831 
Q 966 2247 966 1656 
Q 966 153 1900 -1347 
L 1497 -1347 
z
" transform="scale(0.015625)"/>
       <path id="ArialMT-44" d="M 494 0 
L 494 4581 
L 2072 4581 
Q 2606 4581 2888 4516 
Q 3281 4425 3559 4188 
Q 3922 3881 4101 3404 
Q 4281 2928 4281 2316 
Q 4281 1794 4159 1391 
Q 4038 988 3847 723 
Q 3656 459 3429 307 
Q 3203 156 2883 78 
Q 2563 0 2147 0 
L 494 0 
z
M 1100 541 
L 2078 541 
Q 2531 541 2789 625 
Q 3047 709 3200 863 
Q 3416 1078 3536 1442 
Q 3656 1806 3656 2325 
Q 3656 3044 3420 3430 
Q 3184 3816 2847 3947 
Q 2603 4041 2063 4041 
L 1100 4041 
L 1100 541 
z
" transform="scale(0.015625)"/>
       <path id="ArialMT-61" d="M 2588 409 
Q 2275 144 1986 34 
Q 1697 -75 1366 -75 
Q 819 -75 525 192 
Q 231 459 231 875 
Q 231 1119 342 1320 
Q 453 1522 633 1644 
Q 813 1766 1038 1828 
Q 1203 1872 1538 1913 
Q 2219 1994 2541 2106 
Q 2544 2222 2544 2253 
Q 2544 2597 2384 2738 
Q 2169 2928 1744 2928 
Q 1347 2928 1158 2789 
Q 969 2650 878 2297 
L 328 2372 
Q 403 2725 575 2942 
Q 747 3159 1072 3276 
Q 1397 3394 1825 3394 
Q 2250 3394 2515 3294 
Q 2781 3194 2906 3042 
Q 3031 2891 3081 2659 
Q 3109 2516 3109 2141 
L 3109 1391 
Q 3109 606 3145 398 
Q 3181 191 3288 0 
L 2700 0 
Q 2613 175 2588 409 
z
M 2541 1666 
Q 2234 1541 1622 1453 
Q 1275 1403 1131 1340 
Q 988 1278 909 1158 
Q 831 1038 831 891 
Q 831 666 1001 516 
Q 1172 366 1500 366 
Q 1825 366 2078 508 
Q 2331 650 2450 897 
Q 2541 1088 2541 1459 
L 2541 1666 
z
" transform="scale(0.015625)"/>
       <path id="ArialMT-79" d="M 397 -1278 
L 334 -750 
Q 519 -800 656 -800 
Q 844 -800 956 -737 
Q 1069 -675 1141 -563 
Q 1194 -478 1313 -144 
Q 1328 -97 1363 -6 
L 103 3319 
L 709 3319 
L 1400 1397 
Q 1534 1031 1641 628 
Q 1738 1016 1872 1384 
L 2581 3319 
L 3144 3319 
L 1881 -56 
Q 1678 -603 1566 -809 
Q 1416 -1088 1222 -1217 
Q 1028 -1347 759 -1347 
Q 597 -1347 397 -1278 
z
" transform="scale(0.015625)"/>
       <path id="ArialMT-73" d="M 197 991 
L 753 1078 
Q 800 744 1014 566 
Q 1228 388 1613 388 
Q 2000 388 2187 545 
Q 2375 703 2375 916 
Q 2375 1106 2209 1216 
Q 2094 1291 1634 1406 
Q 1016 1563 777 1677 
Q 538 1791 414 1992 
Q 291 2194 291 2438 
Q 291 2659 392 2848 
Q 494 3038 669 3163 
Q 800 3259 1026 3326 
Q 1253 3394 1513 3394 
Q 1903 3394 2198 3281 
Q 2494 3169 2634 2976 
Q 2775 2784 2828 2463 
L 2278 2388 
Q 2241 2644 2061 2787 
Q 1881 2931 1553 2931 
Q 1166 2931 1000 2803 
Q 834 2675 834 2503 
Q 834 2394 903 2306 
Q 972 2216 1119 2156 
Q 1203 2125 1616 2013 
Q 2213 1853 2448 1751 
Q 2684 1650 2818 1456 
Q 2953 1263 2953 975 
Q 2953 694 2789 445 
Q 2625 197 2315 61 
Q 2006 -75 1616 -75 
Q 969 -75 630 194 
Q 291 463 197 991 
z
" transform="scale(0.015625)"/>
       <path id="ArialMT-29" d="M 791 -1347 
L 388 -1347 
Q 1322 153 1322 1656 
Q 1322 2244 1188 2822 
Q 1081 3291 891 3722 
Q 769 4003 388 4659 
L 791 4659 
Q 1378 3875 1659 3084 
Q 1900 2403 1900 1659 
Q 1900 816 1576 28 
Q 1253 -759 791 -1347 
z
" transform="scale(0.015625)"/>
      </defs>
      <use xlink:href="#ArialMT-54"/>
      <use xlink:href="#ArialMT-69" transform="translate(57.333984 0)"/>
      <use xlink:href="#ArialMT-6d" transform="translate(79.550781 0)"/>
      <use xlink:href="#ArialMT-65" transform="translate(162.851562 0)"/>
      <use xlink:href="#ArialMT-20" transform="translate(218.466797 0)"/>
      <use xlink:href="#ArialMT-28" transform="translate(246.25 0)"/>
      <use xlink:href="#ArialMT-44" transform="translate(279.550781 0)"/>
      <use xlink:href="#ArialMT-61" transform="translate(351.767578 0)"/>
      <use xlink:href="#ArialMT-79" transform="translate(407.382812 0)"/>
      <use xlink:href="#ArialMT-73" transform="translate(457.382812 0)"/>
      <use xlink:href="#ArialMT-29" transform="translate(507.382812 0)"/>
     </g>
    </g>
   </g>
   <g id="matplotlib.axis_2">
    <g id="ytick_1">
     <g id="line2d_13">
      <path d="M 90 123.815261 
L 648 123.815261 
" clip-path="url(#p2772dc4c45)" style="fill: none; stroke: #cccccc; stroke-linecap: round"/>
     </g>
     <g id="text_14">
      <!-- 0 -->
      <g style="fill: #262626" transform="translate(74.382969 127.752058) scale(0.11 -0.11)">
       <use xlink:href="#ArialMT-30"/>
      </g>
     </g>
    </g>
    <g id="ytick_2">
     <g id="line2d_14">
      <path d="M 90 98.691772 
L 648 98.691772 
" clip-path="url(#p2772dc4c45)" style="fill: none; stroke: #cccccc; stroke-linecap: round"/>
     </g>
     <g id="text_15">
      <!-- 100 -->
      <g style="fill: #262626" transform="translate(62.148906 102.628569) scale(0.11 -0.11)">
       <use xlink:href="#ArialMT-31"/>
       <use xlink:href="#ArialMT-30" transform="translate(55.615234 0)"/>
       <use xlink:href="#ArialMT-30" transform="translate(111.230469 0)"/>
      </g>
     </g>
    </g>
    <g id="ytick_3">
     <g id="line2d_15">
      <path d="M 90 73.568283 
L 648 73.568283 
" clip-path="url(#p2772dc4c45)" style="fill: none; stroke: #cccccc; stroke-linecap: round"/>
     </g>
     <g id="text_16">
      <!-- 200 -->
      <g style="fill: #262626" transform="translate(62.148906 77.50508) scale(0.11 -0.11)">
       <use xlink:href="#ArialMT-32"/>
       <use xlink:href="#ArialMT-30" transform="translate(55.615234 0)"/>
       <use xlink:href="#ArialMT-30" transform="translate(111.230469 0)"/>
      </g>
     </g>
    </g>
    <g id="ytick_4">
     <g id="line2d_16">
      <path d="M 90 48.444794 
L 648 48.444794 
" clip-path="url(#p2772dc4c45)" style="fill: none; stroke: #cccccc; stroke-linecap: round"/>
     </g>
     <g id="text_17">
      <!-- 300 -->
      <g style="fill: #262626" transform="translate(62.148906 52.381591) scale(0.11 -0.11)">
       <defs>
        <path id="ArialMT-33" d="M 269 1209 
L 831 1284 
Q 928 806 1161 595 
Q 1394 384 1728 384 
Q 2125 384 2398 659 
Q 2672 934 2672 1341 
Q 2672 1728 2419 1979 
Q 2166 2231 1775 2231 
Q 1616 2231 1378 2169 
L 1441 2663 
Q 1497 2656 1531 2656 
Q 1891 2656 2178 2843 
Q 2466 3031 2466 3422 
Q 2466 3731 2256 3934 
Q 2047 4138 1716 4138 
Q 1388 4138 1169 3931 
Q 950 3725 888 3313 
L 325 3413 
Q 428 3978 793 4289 
Q 1159 4600 1703 4600 
Q 2078 4600 2393 4439 
Q 2709 4278 2876 4000 
Q 3044 3722 3044 3409 
Q 3044 3113 2884 2869 
Q 2725 2625 2413 2481 
Q 2819 2388 3044 2092 
Q 3269 1797 3269 1353 
Q 3269 753 2831 336 
Q 2394 -81 1725 -81 
Q 1122 -81 723 278 
Q 325 638 269 1209 
z
" transform="scale(0.015625)"/>
       </defs>
       <use xlink:href="#ArialMT-33"/>
       <use xlink:href="#ArialMT-30" transform="translate(55.615234 0)"/>
       <use xlink:href="#ArialMT-30" transform="translate(111.230469 0)"/>
      </g>
     </g>
    </g>
    <g id="text_18">
     <!-- Acetate (mg/L) -->
     <g style="fill: #262626" transform="translate(55.623281 112.065937) rotate(-90) scale(0.12 -0.12)">
      <defs>
       <path id="ArialMT-41" d="M -9 0 
L 1750 4581 
L 2403 4581 
L 4278 0 
L 3588 0 
L 3053 1388 
L 1138 1388 
L 634 0 
L -9 0 
z
M 1313 1881 
L 2866 1881 
L 2388 3150 
Q 2169 3728 2063 4100 
Q 1975 3659 1816 3225 
L 1313 1881 
z
" transform="scale(0.015625)"/>
       <path id="ArialMT-63" d="M 2588 1216 
L 3141 1144 
Q 3050 572 2676 248 
Q 2303 -75 1759 -75 
Q 1078 -75 664 370 
Q 250 816 250 1647 
Q 250 2184 428 2587 
Q 606 2991 970 3192 
Q 1334 3394 1763 3394 
Q 2303 3394 2647 3120 
Q 2991 2847 3088 2344 
L 2541 2259 
Q 2463 2594 2264 2762 
Q 2066 2931 1784 2931 
Q 1359 2931 1093 2626 
Q 828 2322 828 1663 
Q 828 994 1084 691 
Q 1341 388 1753 388 
Q 2084 388 2306 591 
Q 2528 794 2588 1216 
z
" transform="scale(0.015625)"/>
       <path id="ArialMT-74" d="M 1650 503 
L 1731 6 
Q 1494 -44 1306 -44 
Q 1000 -44 831 53 
Q 663 150 594 308 
Q 525 466 525 972 
L 525 2881 
L 113 2881 
L 113 3319 
L 525 3319 
L 525 4141 
L 1084 4478 
L 1084 3319 
L 1650 3319 
L 1650 2881 
L 1084 2881 
L 1084 941 
Q 1084 700 1114 631 
Q 1144 563 1211 522 
Q 1278 481 1403 481 
Q 1497 481 1650 503 
z
" transform="scale(0.015625)"/>
       <path id="ArialMT-67" d="M 319 -275 
L 866 -356 
Q 900 -609 1056 -725 
Q 1266 -881 1628 -881 
Q 2019 -881 2231 -725 
Q 2444 -569 2519 -288 
Q 2563 -116 2559 434 
Q 2191 0 1641 0 
Q 956 0 581 494 
Q 206 988 206 1678 
Q 206 2153 378 2554 
Q 550 2956 876 3175 
Q 1203 3394 1644 3394 
Q 2231 3394 2613 2919 
L 2613 3319 
L 3131 3319 
L 3131 450 
Q 3131 -325 2973 -648 
Q 2816 -972 2473 -1159 
Q 2131 -1347 1631 -1347 
Q 1038 -1347 672 -1080 
Q 306 -813 319 -275 
z
M 784 1719 
Q 784 1066 1043 766 
Q 1303 466 1694 466 
Q 2081 466 2343 764 
Q 2606 1063 2606 1700 
Q 2606 2309 2336 2618 
Q 2066 2928 1684 2928 
Q 1309 2928 1046 2623 
Q 784 2319 784 1719 
z
" transform="scale(0.015625)"/>
       <path id="ArialMT-2f" d="M 0 -78 
L 1328 4659 
L 1778 4659 
L 453 -78 
L 0 -78 
z
" transform="scale(0.015625)"/>
       <path id="ArialMT-4c" d="M 469 0 
L 469 4581 
L 1075 4581 
L 1075 541 
L 3331 541 
L 3331 0 
L 469 0 
z
" transform="scale(0.015625)"/>
      </defs>
      <use xlink:href="#ArialMT-41"/>
      <use xlink:href="#ArialMT-63" transform="translate(66.699219 0)"/>
      <use xlink:href="#ArialMT-65" transform="translate(116.699219 0)"/>
      <use xlink:href="#ArialMT-74" transform="translate(172.314453 0)"/>
      <use xlink:href="#ArialMT-61" transform="translate(200.097656 0)"/>
      <use xlink:href="#ArialMT-74" transform="translate(255.712891 0)"/>
      <use xlink:href="#ArialMT-65" transform="translate(283.496094 0)"/>
      <use xlink:href="#ArialMT-20" transform="translate(339.111328 0)"/>
      <use xlink:href="#ArialMT-28" transform="translate(366.894531 0)"/>
      <use xlink:href="#ArialMT-6d" transform="translate(400.195312 0)"/>
      <use xlink:href="#ArialMT-67" transform="translate(483.496094 0)"/>
      <use xlink:href="#ArialMT-2f" transform="translate(539.111328 0)"/>
      <use xlink:href="#ArialMT-4c" transform="translate(566.894531 0)"/>
      <use xlink:href="#ArialMT-29" transform="translate(622.509766 0)"/>
     </g>
    </g>
   </g>
   <g id="line2d_17">
    <path d="M 115.363636 113.080937 
L 163.675325 109.737286 
L 236.142857 112.010563 
L 284.454545 111.077226 
L 332.766234 112.390491 
L 405.233766 112.210913 
L 501.857143 116.927189 
L 622.636364 121.600063 
" clip-path="url(#p2772dc4c45)" style="fill: none; stroke: #56b4e9; stroke-width: 3; stroke-linecap: round"/>
    <defs>
     <path id="m15522c5025" d="M 0 0.75 
C 0.198902 0.75 0.389685 0.670975 0.53033 0.53033 
C 0.670975 0.389685 0.75 0.198902 0.75 0 
C 0.75 -0.198902 0.670975 -0.389685 0.53033 -0.53033 
C 0.389685 -0.670975 0.198902 -0.75 0 -0.75 
C -0.198902 -0.75 -0.389685 -0.670975 -0.53033 -0.53033 
C -0.670975 -0.389685 -0.75 -0.198902 -0.75 0 
C -0.75 0.198902 -0.670975 0.389685 -0.53033 0.53033 
C -0.389685 0.670975 -0.198902 0.75 0 0.75 
z
" style="stroke: #ffffff; stroke-width: 0.75"/>
    </defs>
    <g clip-path="url(#p2772dc4c45)">
     <use xlink:href="#m15522c5025" x="115.363636" y="113.080937" style="fill: #56b4e9; stroke: #ffffff; stroke-width: 0.75"/>
     <use xlink:href="#m15522c5025" x="163.675325" y="109.737286" style="fill: #56b4e9; stroke: #ffffff; stroke-width: 0.75"/>
     <use xlink:href="#m15522c5025" x="236.142857" y="112.010563" style="fill: #56b4e9; stroke: #ffffff; stroke-width: 0.75"/>
     <use xlink:href="#m15522c5025" x="284.454545" y="111.077226" style="fill: #56b4e9; stroke: #ffffff; stroke-width: 0.75"/>
     <use xlink:href="#m15522c5025" x="332.766234" y="112.390491" style="fill: #56b4e9; stroke: #ffffff; stroke-width: 0.75"/>
     <use xlink:href="#m15522c5025" x="405.233766" y="112.210913" style="fill: #56b4e9; stroke: #ffffff; stroke-width: 0.75"/>
     <use xlink:href="#m15522c5025" x="501.857143" y="116.927189" style="fill: #56b4e9; stroke: #ffffff; stroke-width: 0.75"/>
     <use xlink:href="#m15522c5025" x="622.636364" y="121.600063" style="fill: #56b4e9; stroke: #ffffff; stroke-width: 0.75"/>
    </g>
   </g>
   <g id="LineCollection_1">
    <path d="M 115.363636 114.134821 
L 115.363636 111.758923 
" clip-path="url(#p2772dc4c45)" style="fill: none; stroke: #56b4e9; stroke-width: 2.5; stroke-linecap: round"/>
    <path d="M 163.675325 110.352694 
L 163.675325 109.246128 
" clip-path="url(#p2772dc4c45)" style="fill: none; stroke: #56b4e9; stroke-width: 2.5; stroke-linecap: round"/>
    <path d="M 236.142857 113.01345 
L 236.142857 110.091099 
" clip-path="url(#p2772dc4c45)" style="fill: none; stroke: #56b4e9; stroke-width: 2.5; stroke-linecap: round"/>
    <path d="M 284.454545 111.656507 
L 284.454545 110.455212 
" clip-path="url(#p2772dc4c45)" style="fill: none; stroke: #56b4e9; stroke-width: 2.5; stroke-linecap: round"/>
    <path d="M 332.766234 114.169922 
L 332.766234 111.004578 
" clip-path="url(#p2772dc4c45)" style="fill: none; stroke: #56b4e9; stroke-width: 2.5; stroke-linecap: round"/>
    <path d="M 405.233766 113.428786 
L 405.233766 109.905572 
" clip-path="url(#p2772dc4c45)" style="fill: none; stroke: #56b4e9; stroke-width: 2.5; stroke-linecap: round"/>
    <path d="M 501.857143 117.527874 
L 501.857143 115.949834 
" clip-path="url(#p2772dc4c45)" style="fill: none; stroke: #56b4e9; stroke-width: 2.5; stroke-linecap: round"/>
    <path d="M 622.636364 123.12 
L 622.636364 118.560188 
" clip-path="url(#p2772dc4c45)" style="fill: none; stroke: #56b4e9; stroke-width: 2.5; stroke-linecap: round"/>
   </g>
   <g id="line2d_18">
    <defs>
     <path id="mfd7495a3fa" d="M 3 0 
L -3 -0 
" style="stroke: #56b4e9; stroke-width: 3"/>
    </defs>
    <g clip-path="url(#p2772dc4c45)">
     <use xlink:href="#mfd7495a3fa" x="115.363636" y="114.134821" style="fill: #56b4e9; stroke: #56b4e9; stroke-width: 3"/>
     <use xlink:href="#mfd7495a3fa" x="163.675325" y="110.352694" style="fill: #56b4e9; stroke: #56b4e9; stroke-width: 3"/>
     <use xlink:href="#mfd7495a3fa" x="236.142857" y="113.01345" style="fill: #56b4e9; stroke: #56b4e9; stroke-width: 3"/>
     <use xlink:href="#mfd7495a3fa" x="284.454545" y="111.656507" style="fill: #56b4e9; stroke: #56b4e9; stroke-width: 3"/>
     <use xlink:href="#mfd7495a3fa" x="332.766234" y="114.169922" style="fill: #56b4e9; stroke: #56b4e9; stroke-width: 3"/>
     <use xlink:href="#mfd7495a3fa" x="405.233766" y="113.428786" style="fill: #56b4e9; stroke: #56b4e9; stroke-width: 3"/>
     <use xlink:href="#mfd7495a3fa" x="501.857143" y="117.527874" style="fill: #56b4e9; stroke: #56b4e9; stroke-width: 3"/>
     <use xlink:href="#mfd7495a3fa" x="622.636364" y="123.12" style="fill: #56b4e9; stroke: #56b4e9; stroke-width: 3"/>
    </g>
   </g>
   <g id="line2d_19">
    <g clip-path="url(#p2772dc4c45)">
     <use xlink:href="#mfd7495a3fa" x="115.363636" y="111.758923" style="fill: #56b4e9; stroke: #56b4e9; stroke-width: 3"/>
     <use xlink:href="#mfd7495a3fa" x="163.675325" y="109.246128" style="fill: #56b4e9; stroke: #56b4e9; stroke-width: 3"/>
     <use xlink:href="#mfd7495a3fa" x="236.142857" y="110.091099" style="fill: #56b4e9; stroke: #56b4e9; stroke-width: 3"/>
     <use xlink:href="#mfd7495a3fa" x="284.454545" y="110.455212" style="fill: #56b4e9; stroke: #56b4e9; stroke-width: 3"/>
     <use xlink:href="#mfd7495a3fa" x="332.766234" y="111.004578" style="fill: #56b4e9; stroke: #56b4e9; stroke-width: 3"/>
     <use xlink:href="#mfd7495a3fa" x="405.233766" y="109.905572" style="fill: #56b4e9; stroke: #56b4e9; stroke-width: 3"/>
     <use xlink:href="#mfd7495a3fa" x="501.857143" y="115.949834" style="fill: #56b4e9; stroke: #56b4e9; stroke-width: 3"/>
     <use xlink:href="#mfd7495a3fa" x="622.636364" y="118.560188" style="fill: #56b4e9; stroke: #56b4e9; stroke-width: 3"/>
    </g>
   </g>
   <g id="line2d_20">
    <path d="M 115.363636 113.469013 
L 163.675325 112.152881 
L 236.142857 104.180772 
L 284.454545 80.886888 
L 332.766234 80.252042 
L 405.233766 78.595361 
L 501.857143 78.2357 
L 622.636364 79.747685 
" clip-path="url(#p2772dc4c45)" style="fill: none; stroke: #d55e00; stroke-width: 3; stroke-linecap: round"/>
    <defs>
     <path id="m06c4cef6c5" d="M 0 0.75 
C 0.198902 0.75 0.389685 0.670975 0.53033 0.53033 
C 0.670975 0.389685 0.75 0.198902 0.75 0 
C 0.75 -0.198902 0.670975 -0.389685 0.53033 -0.53033 
C 0.389685 -0.670975 0.198902 -0.75 0 -0.75 
C -0.198902 -0.75 -0.389685 -0.670975 -0.53033 -0.53033 
C -0.670975 -0.389685 -0.75 -0.198902 -0.75 0 
C -0.75 0.198902 -0.670975 0.389685 -0.53033 0.53033 
C -0.389685 0.670975 -0.198902 0.75 0 0.75 
z
" style="stroke: #ffffff; stroke-width: 0.75"/>
    </defs>
    <g clip-path="url(#p2772dc4c45)">
     <use xlink:href="#m06c4cef6c5" x="115.363636" y="113.469013" style="fill: #d55e00; stroke: #ffffff; stroke-width: 0.75"/>
     <use xlink:href="#m06c4cef6c5" x="163.675325" y="112.152881" style="fill: #d55e00; stroke: #ffffff; stroke-width: 0.75"/>
     <use xlink:href="#m06c4cef6c5" x="236.142857" y="104.180772" style="fill: #d55e00; stroke: #ffffff; stroke-width: 0.75"/>
     <use xlink:href="#m06c4cef6c5" x="284.454545" y="80.886888" style="fill: #d55e00; stroke: #ffffff; stroke-width: 0.75"/>
     <use xlink:href="#m06c4cef6c5" x="332.766234" y="80.252042" style="fill: #d55e00; stroke: #ffffff; stroke-width: 0.75"/>
     <use xlink:href="#m06c4cef6c5" x="405.233766" y="78.595361" style="fill: #d55e00; stroke: #ffffff; stroke-width: 0.75"/>
     <use xlink:href="#m06c4cef6c5" x="501.857143" y="78.2357" style="fill: #d55e00; stroke: #ffffff; stroke-width: 0.75"/>
     <use xlink:href="#m06c4cef6c5" x="622.636364" y="79.747685" style="fill: #d55e00; stroke: #ffffff; stroke-width: 0.75"/>
    </g>
   </g>
   <g id="LineCollection_2">
    <path d="M 115.363636 114.733991 
L 115.363636 112.638353 
" clip-path="url(#p2772dc4c45)" style="fill: none; stroke: #d55e00; stroke-width: 2.5; stroke-linecap: round"/>
    <path d="M 163.675325 113.932141 
L 163.675325 110.496861 
" clip-path="url(#p2772dc4c45)" style="fill: none; stroke: #d55e00; stroke-width: 2.5; stroke-linecap: round"/>
    <path d="M 236.142857 114.944471 
L 236.142857 93.872117 
" clip-path="url(#p2772dc4c45)" style="fill: none; stroke: #d55e00; stroke-width: 2.5; stroke-linecap: round"/>
    <path d="M 284.454545 84.927812 
L 284.454545 75.57911 
" clip-path="url(#p2772dc4c45)" style="fill: none; stroke: #d55e00; stroke-width: 2.5; stroke-linecap: round"/>
    <path d="M 332.766234 91.81465 
L 332.766234 66.60143 
" clip-path="url(#p2772dc4c45)" style="fill: none; stroke: #d55e00; stroke-width: 2.5; stroke-linecap: round"/>
    <path d="M 405.233766 90.091115 
L 405.233766 67.305067 
" clip-path="url(#p2772dc4c45)" style="fill: none; stroke: #d55e00; stroke-width: 2.5; stroke-linecap: round"/>
    <path d="M 501.857143 81.729152 
L 501.857143 72.754095 
" clip-path="url(#p2772dc4c45)" style="fill: none; stroke: #d55e00; stroke-width: 2.5; stroke-linecap: round"/>
    <path d="M 622.636364 89.188546 
L 622.636364 71.506066 
" clip-path="url(#p2772dc4c45)" style="fill: none; stroke: #d55e00; stroke-width: 2.5; stroke-linecap: round"/>
   </g>
   <g id="line2d_21">
    <defs>
     <path id="m0ec3a4b36b" d="M 3 0 
L -3 -0 
" style="stroke: #d55e00; stroke-width: 3"/>
    </defs>
    <g clip-path="url(#p2772dc4c45)">
     <use xlink:href="#m0ec3a4b36b" x="115.363636" y="114.733991" style="fill: #d55e00; stroke: #d55e00; stroke-width: 3"/>
     <use xlink:href="#m0ec3a4b36b" x="163.675325" y="113.932141" style="fill: #d55e00; stroke: #d55e00; stroke-width: 3"/>
     <use xlink:href="#m0ec3a4b36b" x="236.142857" y="114.944471" style="fill: #d55e00; stroke: #d55e00; stroke-width: 3"/>
     <use xlink:href="#m0ec3a4b36b" x="284.454545" y="84.927812" style="fill: #d55e00; stroke: #d55e00; stroke-width: 3"/>
     <use xlink:href="#m0ec3a4b36b" x="332.766234" y="91.81465" style="fill: #d55e00; stroke: #d55e00; stroke-width: 3"/>
     <use xlink:href="#m0ec3a4b36b" x="405.233766" y="90.091115" style="fill: #d55e00; stroke: #d55e00; stroke-width: 3"/>
     <use xlink:href="#m0ec3a4b36b" x="501.857143" y="81.729152" style="fill: #d55e00; stroke: #d55e00; stroke-width: 3"/>
     <use xlink:href="#m0ec3a4b36b" x="622.636364" y="89.188546" style="fill: #d55e00; stroke: #d55e00; stroke-width: 3"/>
    </g>
   </g>
   <g id="line2d_22">
    <g clip-path="url(#p2772dc4c45)">
     <use xlink:href="#m0ec3a4b36b" x="115.363636" y="112.638353" style="fill: #d55e00; stroke: #d55e00; stroke-width: 3"/>
     <use xlink:href="#m0ec3a4b36b" x="163.675325" y="110.496861" style="fill: #d55e00; stroke: #d55e00; stroke-width: 3"/>
     <use xlink:href="#m0ec3a4b36b" x="236.142857" y="93.872117" style="fill: #d55e00; stroke: #d55e00; stroke-width: 3"/>
     <use xlink:href="#m0ec3a4b36b" x="284.454545" y="75.57911" style="fill: #d55e00; stroke: #d55e00; stroke-width: 3"/>
     <use xlink:href="#m0ec3a4b36b" x="332.766234" y="66.60143" style="fill: #d55e00; stroke: #d55e00; stroke-width: 3"/>
     <use xlink:href="#m0ec3a4b36b" x="405.233766" y="67.305067" style="fill: #d55e00; stroke: #d55e00; stroke-width: 3"/>
     <use xlink:href="#m0ec3a4b36b" x="501.857143" y="72.754095" style="fill: #d55e00; stroke: #d55e00; stroke-width: 3"/>
     <use xlink:href="#m0ec3a4b36b" x="622.636364" y="71.506066" style="fill: #d55e00; stroke: #d55e00; stroke-width: 3"/>
    </g>
   </g>
   <g id="line2d_23">
    <path d="M 115.363636 112.835898 
L 163.675325 109.912921 
L 236.142857 107.654836 
L 284.454545 106.16161 
L 332.766234 101.919894 
L 405.233766 92.794358 
L 501.857143 69.568531 
L 622.636364 49.499271 
" clip-path="url(#p2772dc4c45)" style="fill: none; stroke: #e4c788; stroke-width: 3; stroke-linecap: round"/>
    <defs>
     <path id="m05aad8b41d" d="M 0 0.75 
C 0.198902 0.75 0.389685 0.670975 0.53033 0.53033 
C 0.670975 0.389685 0.75 0.198902 0.75 0 
C 0.75 -0.198902 0.670975 -0.389685 0.53033 -0.53033 
C 0.389685 -0.670975 0.198902 -0.75 0 -0.75 
C -0.198902 -0.75 -0.389685 -0.670975 -0.53033 -0.53033 
C -0.670975 -0.389685 -0.75 -0.198902 -0.75 0 
C -0.75 0.198902 -0.670975 0.389685 -0.53033 0.53033 
C -0.389685 0.670975 -0.198902 0.75 0 0.75 
z
" style="stroke: #ffffff; stroke-width: 0.75"/>
    </defs>
    <g clip-path="url(#p2772dc4c45)">
     <use xlink:href="#m05aad8b41d" x="115.363636" y="112.835898" style="fill: #e4c788; stroke: #ffffff; stroke-width: 0.75"/>
     <use xlink:href="#m05aad8b41d" x="163.675325" y="109.912921" style="fill: #e4c788; stroke: #ffffff; stroke-width: 0.75"/>
     <use xlink:href="#m05aad8b41d" x="236.142857" y="107.654836" style="fill: #e4c788; stroke: #ffffff; stroke-width: 0.75"/>
     <use xlink:href="#m05aad8b41d" x="284.454545" y="106.16161" style="fill: #e4c788; stroke: #ffffff; stroke-width: 0.75"/>
     <use xlink:href="#m05aad8b41d" x="332.766234" y="101.919894" style="fill: #e4c788; stroke: #ffffff; stroke-width: 0.75"/>
     <use xlink:href="#m05aad8b41d" x="405.233766" y="92.794358" style="fill: #e4c788; stroke: #ffffff; stroke-width: 0.75"/>
     <use xlink:href="#m05aad8b41d" x="501.857143" y="69.568531" style="fill: #e4c788; stroke: #ffffff; stroke-width: 0.75"/>
     <use xlink:href="#m05aad8b41d" x="622.636364" y="49.499271" style="fill: #e4c788; stroke: #ffffff; stroke-width: 0.75"/>
    </g>
   </g>
   <g id="LineCollection_3">
    <path d="M 115.363636 113.025616 
L 115.363636 112.643642 
" clip-path="url(#p2772dc4c45)" style="fill: none; stroke: #e4c788; stroke-width: 2.5; stroke-linecap: round"/>
    <path d="M 163.675325 111.38322 
L 163.675325 107.376477 
" clip-path="url(#p2772dc4c45)" style="fill: none; stroke: #e4c788; stroke-width: 2.5; stroke-linecap: round"/>
    <path d="M 236.142857 108.966752 
L 236.142857 105.693413 
" clip-path="url(#p2772dc4c45)" style="fill: none; stroke: #e4c788; stroke-width: 2.5; stroke-linecap: round"/>
    <path d="M 284.454545 108.205546 
L 284.454545 102.484087 
" clip-path="url(#p2772dc4c45)" style="fill: none; stroke: #e4c788; stroke-width: 2.5; stroke-linecap: round"/>
    <path d="M 332.766234 104.484555 
L 332.766234 97.541802 
" clip-path="url(#p2772dc4c45)" style="fill: none; stroke: #e4c788; stroke-width: 2.5; stroke-linecap: round"/>
    <path d="M 405.233766 107.153122 
L 405.233766 84.996863 
" clip-path="url(#p2772dc4c45)" style="fill: none; stroke: #e4c788; stroke-width: 2.5; stroke-linecap: round"/>
    <path d="M 501.857143 93.106253 
L 501.857143 54.277767 
" clip-path="url(#p2772dc4c45)" style="fill: none; stroke: #e4c788; stroke-width: 2.5; stroke-linecap: round"/>
    <path d="M 622.636364 78.639566 
L 622.636364 22.32 
" clip-path="url(#p2772dc4c45)" style="fill: none; stroke: #e4c788; stroke-width: 2.5; stroke-linecap: round"/>
   </g>
   <g id="line2d_24">
    <defs>
     <path id="m150887a1b4" d="M 3 0 
L -3 -0 
" style="stroke: #e4c788; stroke-width: 3"/>
    </defs>
    <g clip-path="url(#p2772dc4c45)">
     <use xlink:href="#m150887a1b4" x="115.363636" y="113.025616" style="fill: #e4c788; stroke: #e4c788; stroke-width: 3"/>
     <use xlink:href="#m150887a1b4" x="163.675325" y="111.38322" style="fill: #e4c788; stroke: #e4c788; stroke-width: 3"/>
     <use xlink:href="#m150887a1b4" x="236.142857" y="108.966752" style="fill: #e4c788; stroke: #e4c788; stroke-width: 3"/>
     <use xlink:href="#m150887a1b4" x="284.454545" y="108.205546" style="fill: #e4c788; stroke: #e4c788; stroke-width: 3"/>
     <use xlink:href="#m150887a1b4" x="332.766234" y="104.484555" style="fill: #e4c788; stroke: #e4c788; stroke-width: 3"/>
     <use xlink:href="#m150887a1b4" x="405.233766" y="107.153122" style="fill: #e4c788; stroke: #e4c788; stroke-width: 3"/>
     <use xlink:href="#m150887a1b4" x="501.857143" y="93.106253" style="fill: #e4c788; stroke: #e4c788; stroke-width: 3"/>
     <use xlink:href="#m150887a1b4" x="622.636364" y="78.639566" style="fill: #e4c788; stroke: #e4c788; stroke-width: 3"/>
    </g>
   </g>
   <g id="line2d_25">
    <g clip-path="url(#p2772dc4c45)">
     <use xlink:href="#m150887a1b4" x="115.363636" y="112.643642" style="fill: #e4c788; stroke: #e4c788; stroke-width: 3"/>
     <use xlink:href="#m150887a1b4" x="163.675325" y="107.376477" style="fill: #e4c788; stroke: #e4c788; stroke-width: 3"/>
     <use xlink:href="#m150887a1b4" x="236.142857" y="105.693413" style="fill: #e4c788; stroke: #e4c788; stroke-width: 3"/>
     <use xlink:href="#m150887a1b4" x="284.454545" y="102.484087" style="fill: #e4c788; stroke: #e4c788; stroke-width: 3"/>
     <use xlink:href="#m150887a1b4" x="332.766234" y="97.541802" style="fill: #e4c788; stroke: #e4c788; stroke-width: 3"/>
     <use xlink:href="#m150887a1b4" x="405.233766" y="84.996863" style="fill: #e4c788; stroke: #e4c788; stroke-width: 3"/>
     <use xlink:href="#m150887a1b4" x="501.857143" y="54.277767" style="fill: #e4c788; stroke: #e4c788; stroke-width: 3"/>
     <use xlink:href="#m150887a1b4" x="622.636364" y="22.32" style="fill: #e4c788; stroke: #e4c788; stroke-width: 3"/>
    </g>
   </g>
   <g id="line2d_26">
    <path d="M 115.363636 112.727628 
L 163.675325 108.828823 
L 236.142857 109.856864 
L 284.454545 108.81056 
L 332.766234 108.494708 
L 405.233766 95.588242 
L 501.857143 68.673572 
L 622.636364 43.338009 
" clip-path="url(#p2772dc4c45)" style="fill: none; stroke: #8c8c8c; stroke-width: 3; stroke-linecap: round"/>
    <defs>
     <path id="mec12e0a451" d="M 0 0.75 
C 0.198902 0.75 0.389685 0.670975 0.53033 0.53033 
C 0.670975 0.389685 0.75 0.198902 0.75 0 
C 0.75 -0.198902 0.670975 -0.389685 0.53033 -0.53033 
C 0.389685 -0.670975 0.198902 -0.75 0 -0.75 
C -0.198902 -0.75 -0.389685 -0.670975 -0.53033 -0.53033 
C -0.670975 -0.389685 -0.75 -0.198902 -0.75 0 
C -0.75 0.198902 -0.670975 0.389685 -0.53033 0.53033 
C -0.389685 0.670975 -0.198902 0.75 0 0.75 
z
" style="stroke: #ffffff; stroke-width: 0.75"/>
    </defs>
    <g clip-path="url(#p2772dc4c45)">
     <use xlink:href="#mec12e0a451" x="115.363636" y="112.727628" style="fill: #8c8c8c; stroke: #ffffff; stroke-width: 0.75"/>
     <use xlink:href="#mec12e0a451" x="163.675325" y="108.828823" style="fill: #8c8c8c; stroke: #ffffff; stroke-width: 0.75"/>
     <use xlink:href="#mec12e0a451" x="236.142857" y="109.856864" style="fill: #8c8c8c; stroke: #ffffff; stroke-width: 0.75"/>
     <use xlink:href="#mec12e0a451" x="284.454545" y="108.81056" style="fill: #8c8c8c; stroke: #ffffff; stroke-width: 0.75"/>
     <use xlink:href="#mec12e0a451" x="332.766234" y="108.494708" style="fill: #8c8c8c; stroke: #ffffff; stroke-width: 0.75"/>
     <use xlink:href="#mec12e0a451" x="405.233766" y="95.588242" style="fill: #8c8c8c; stroke: #ffffff; stroke-width: 0.75"/>
     <use xlink:href="#mec12e0a451" x="501.857143" y="68.673572" style="fill: #8c8c8c; stroke: #ffffff; stroke-width: 0.75"/>
     <use xlink:href="#mec12e0a451" x="622.636364" y="43.338009" style="fill: #8c8c8c; stroke: #ffffff; stroke-width: 0.75"/>
    </g>
   </g>
   <g id="LineCollection_4">
    <path d="M 115.363636 113.210005 
L 115.363636 112.315481 
" clip-path="url(#p2772dc4c45)" style="fill: none; stroke: #8c8c8c; stroke-width: 2.5; stroke-linecap: round"/>
    <path d="M 163.675325 109.047535 
L 163.675325 108.683414 
" clip-path="url(#p2772dc4c45)" style="fill: none; stroke: #8c8c8c; stroke-width: 2.5; stroke-linecap: round"/>
    <path d="M 236.142857 110.022795 
L 236.142857 109.658244 
" clip-path="url(#p2772dc4c45)" style="fill: none; stroke: #8c8c8c; stroke-width: 2.5; stroke-linecap: round"/>
    <path d="M 284.454545 109.527549 
L 284.454545 107.420184 
" clip-path="url(#p2772dc4c45)" style="fill: none; stroke: #8c8c8c; stroke-width: 2.5; stroke-linecap: round"/>
    <path d="M 332.766234 109.288386 
L 332.766234 107.326566 
" clip-path="url(#p2772dc4c45)" style="fill: none; stroke: #8c8c8c; stroke-width: 2.5; stroke-linecap: round"/>
    <path d="M 405.233766 101.399095 
L 405.233766 89.773462 
" clip-path="url(#p2772dc4c45)" style="fill: none; stroke: #8c8c8c; stroke-width: 2.5; stroke-linecap: round"/>
    <path d="M 501.857143 73.161859 
L 501.857143 65.953236 
" clip-path="url(#p2772dc4c45)" style="fill: none; stroke: #8c8c8c; stroke-width: 2.5; stroke-linecap: round"/>
    <path d="M 622.636364 51.669431 
L 622.636364 35.762083 
" clip-path="url(#p2772dc4c45)" style="fill: none; stroke: #8c8c8c; stroke-width: 2.5; stroke-linecap: round"/>
   </g>
   <g id="line2d_27">
    <defs>
     <path id="m4165b6e4d4" d="M 3 0 
L -3 -0 
" style="stroke: #8c8c8c; stroke-width: 3"/>
    </defs>
    <g clip-path="url(#p2772dc4c45)">
     <use xlink:href="#m4165b6e4d4" x="115.363636" y="113.210005" style="fill: #8c8c8c; stroke: #8c8c8c; stroke-width: 3"/>
     <use xlink:href="#m4165b6e4d4" x="163.675325" y="109.047535" style="fill: #8c8c8c; stroke: #8c8c8c; stroke-width: 3"/>
     <use xlink:href="#m4165b6e4d4" x="236.142857" y="110.022795" style="fill: #8c8c8c; stroke: #8c8c8c; stroke-width: 3"/>
     <use xlink:href="#m4165b6e4d4" x="284.454545" y="109.527549" style="fill: #8c8c8c; stroke: #8c8c8c; stroke-width: 3"/>
     <use xlink:href="#m4165b6e4d4" x="332.766234" y="109.288386" style="fill: #8c8c8c; stroke: #8c8c8c; stroke-width: 3"/>
     <use xlink:href="#m4165b6e4d4" x="405.233766" y="101.399095" style="fill: #8c8c8c; stroke: #8c8c8c; stroke-width: 3"/>
     <use xlink:href="#m4165b6e4d4" x="501.857143" y="73.161859" style="fill: #8c8c8c; stroke: #8c8c8c; stroke-width: 3"/>
     <use xlink:href="#m4165b6e4d4" x="622.636364" y="51.669431" style="fill: #8c8c8c; stroke: #8c8c8c; stroke-width: 3"/>
    </g>
   </g>
   <g id="line2d_28">
    <g clip-path="url(#p2772dc4c45)">
     <use xlink:href="#m4165b6e4d4" x="115.363636" y="112.315481" style="fill: #8c8c8c; stroke: #8c8c8c; stroke-width: 3"/>
     <use xlink:href="#m4165b6e4d4" x="163.675325" y="108.683414" style="fill: #8c8c8c; stroke: #8c8c8c; stroke-width: 3"/>
     <use xlink:href="#m4165b6e4d4" x="236.142857" y="109.658244" style="fill: #8c8c8c; stroke: #8c8c8c; stroke-width: 3"/>
     <use xlink:href="#m4165b6e4d4" x="284.454545" y="107.420184" style="fill: #8c8c8c; stroke: #8c8c8c; stroke-width: 3"/>
     <use xlink:href="#m4165b6e4d4" x="332.766234" y="107.326566" style="fill: #8c8c8c; stroke: #8c8c8c; stroke-width: 3"/>
     <use xlink:href="#m4165b6e4d4" x="405.233766" y="89.773462" style="fill: #8c8c8c; stroke: #8c8c8c; stroke-width: 3"/>
     <use xlink:href="#m4165b6e4d4" x="501.857143" y="65.953236" style="fill: #8c8c8c; stroke: #8c8c8c; stroke-width: 3"/>
     <use xlink:href="#m4165b6e4d4" x="622.636364" y="35.762083" style="fill: #8c8c8c; stroke: #8c8c8c; stroke-width: 3"/>
    </g>
   </g>
   <g id="line2d_29">
    <path d="M 115.363636 112.495199 
L 163.675325 110.99774 
L 236.142857 105.364012 
L 284.454545 91.727071 
L 332.766234 77.584553 
L 405.233766 78.011746 
L 501.857143 76.368733 
L 622.636364 86.353781 
" clip-path="url(#p2772dc4c45)" style="fill: none; stroke: #009e73; stroke-width: 3; stroke-linecap: round"/>
    <defs>
     <path id="m00e8ced53a" d="M 0 0.75 
C 0.198902 0.75 0.389685 0.670975 0.53033 0.53033 
C 0.670975 0.389685 0.75 0.198902 0.75 0 
C 0.75 -0.198902 0.670975 -0.389685 0.53033 -0.53033 
C 0.389685 -0.670975 0.198902 -0.75 0 -0.75 
C -0.198902 -0.75 -0.389685 -0.670975 -0.53033 -0.53033 
C -0.670975 -0.389685 -0.75 -0.198902 -0.75 0 
C -0.75 0.198902 -0.670975 0.389685 -0.53033 0.53033 
C -0.389685 0.670975 -0.198902 0.75 0 0.75 
z
" style="stroke: #ffffff; stroke-width: 0.75"/>
    </defs>
    <g clip-path="url(#p2772dc4c45)">
     <use xlink:href="#m00e8ced53a" x="115.363636" y="112.495199" style="fill: #009e73; stroke: #ffffff; stroke-width: 0.75"/>
     <use xlink:href="#m00e8ced53a" x="163.675325" y="110.99774" style="fill: #009e73; stroke: #ffffff; stroke-width: 0.75"/>
     <use xlink:href="#m00e8ced53a" x="236.142857" y="105.364012" style="fill: #009e73; stroke: #ffffff; stroke-width: 0.75"/>
     <use xlink:href="#m00e8ced53a" x="284.454545" y="91.727071" style="fill: #009e73; stroke: #ffffff; stroke-width: 0.75"/>
     <use xlink:href="#m00e8ced53a" x="332.766234" y="77.584553" style="fill: #009e73; stroke: #ffffff; stroke-width: 0.75"/>
     <use xlink:href="#m00e8ced53a" x="405.233766" y="78.011746" style="fill: #009e73; stroke: #ffffff; stroke-width: 0.75"/>
     <use xlink:href="#m00e8ced53a" x="501.857143" y="76.368733" style="fill: #009e73; stroke: #ffffff; stroke-width: 0.75"/>
     <use xlink:href="#m00e8ced53a" x="622.636364" y="86.353781" style="fill: #009e73; stroke: #ffffff; stroke-width: 0.75"/>
    </g>
   </g>
   <g id="LineCollection_5">
    <path d="M 115.363636 113.177807 
L 115.363636 112.045231 
" clip-path="url(#p2772dc4c45)" style="fill: none; stroke: #009e73; stroke-width: 2.5; stroke-linecap: round"/>
    <path d="M 163.675325 117.00169 
L 163.675325 107.989802 
" clip-path="url(#p2772dc4c45)" style="fill: none; stroke: #009e73; stroke-width: 2.5; stroke-linecap: round"/>
    <path d="M 236.142857 106.340294 
L 236.142857 103.443385 
" clip-path="url(#p2772dc4c45)" style="fill: none; stroke: #009e73; stroke-width: 2.5; stroke-linecap: round"/>
    <path d="M 284.454545 97.495351 
L 284.454545 83.08379 
" clip-path="url(#p2772dc4c45)" style="fill: none; stroke: #009e73; stroke-width: 2.5; stroke-linecap: round"/>
    <path d="M 332.766234 84.187398 
L 332.766234 68.667889 
" clip-path="url(#p2772dc4c45)" style="fill: none; stroke: #009e73; stroke-width: 2.5; stroke-linecap: round"/>
    <path d="M 405.233766 89.912871 
L 405.233766 71.390372 
" clip-path="url(#p2772dc4c45)" style="fill: none; stroke: #009e73; stroke-width: 2.5; stroke-linecap: round"/>
    <path d="M 501.857143 78.645971 
L 501.857143 73.249829 
" clip-path="url(#p2772dc4c45)" style="fill: none; stroke: #009e73; stroke-width: 2.5; stroke-linecap: round"/>
    <path d="M 622.636364 88.909451 
L 622.636364 82.258441 
" clip-path="url(#p2772dc4c45)" style="fill: none; stroke: #009e73; stroke-width: 2.5; stroke-linecap: round"/>
   </g>
   <g id="line2d_30">
    <defs>
     <path id="m78563ea441" d="M 3 0 
L -3 -0 
" style="stroke: #009e73; stroke-width: 3"/>
    </defs>
    <g clip-path="url(#p2772dc4c45)">
     <use xlink:href="#m78563ea441" x="115.363636" y="113.177807" style="fill: #009e73; stroke: #009e73; stroke-width: 3"/>
     <use xlink:href="#m78563ea441" x="163.675325" y="117.00169" style="fill: #009e73; stroke: #009e73; stroke-width: 3"/>
     <use xlink:href="#m78563ea441" x="236.142857" y="106.340294" style="fill: #009e73; stroke: #009e73; stroke-width: 3"/>
     <use xlink:href="#m78563ea441" x="284.454545" y="97.495351" style="fill: #009e73; stroke: #009e73; stroke-width: 3"/>
     <use xlink:href="#m78563ea441" x="332.766234" y="84.187398" style="fill: #009e73; stroke: #009e73; stroke-width: 3"/>
     <use xlink:href="#m78563ea441" x="405.233766" y="89.912871" style="fill: #009e73; stroke: #009e73; stroke-width: 3"/>
     <use xlink:href="#m78563ea441" x="501.857143" y="78.645971" style="fill: #009e73; stroke: #009e73; stroke-width: 3"/>
     <use xlink:href="#m78563ea441" x="622.636364" y="88.909451" style="fill: #009e73; stroke: #009e73; stroke-width: 3"/>
    </g>
   </g>
   <g id="line2d_31">
    <g clip-path="url(#p2772dc4c45)">
     <use xlink:href="#m78563ea441" x="115.363636" y="112.045231" style="fill: #009e73; stroke: #009e73; stroke-width: 3"/>
     <use xlink:href="#m78563ea441" x="163.675325" y="107.989802" style="fill: #009e73; stroke: #009e73; stroke-width: 3"/>
     <use xlink:href="#m78563ea441" x="236.142857" y="103.443385" style="fill: #009e73; stroke: #009e73; stroke-width: 3"/>
     <use xlink:href="#m78563ea441" x="284.454545" y="83.08379" style="fill: #009e73; stroke: #009e73; stroke-width: 3"/>
     <use xlink:href="#m78563ea441" x="332.766234" y="68.667889" style="fill: #009e73; stroke: #009e73; stroke-width: 3"/>
     <use xlink:href="#m78563ea441" x="405.233766" y="71.390372" style="fill: #009e73; stroke: #009e73; stroke-width: 3"/>
     <use xlink:href="#m78563ea441" x="501.857143" y="73.249829" style="fill: #009e73; stroke: #009e73; stroke-width: 3"/>
     <use xlink:href="#m78563ea441" x="622.636364" y="82.258441" style="fill: #009e73; stroke: #009e73; stroke-width: 3"/>
    </g>
   </g>
   <g id="line2d_32">
    <path d="M 115.363636 112.3216 
L 163.675325 113.511129 
L 236.142857 112.670707 
L 284.454545 112.670707 
L 332.766234 112.670707 
L 405.233766 112.670707 
L 501.857143 112.670707 
L 622.636364 112.670707 
" clip-path="url(#p2772dc4c45)" style="fill: none; stroke: #ffafdb; stroke-width: 3; stroke-linecap: round"/>
    <defs>
     <path id="md1d006b5fd" d="M 0 0.75 
C 0.198902 0.75 0.389685 0.670975 0.53033 0.53033 
C 0.670975 0.389685 0.75 0.198902 0.75 0 
C 0.75 -0.198902 0.670975 -0.389685 0.53033 -0.53033 
C 0.389685 -0.670975 0.198902 -0.75 0 -0.75 
C -0.198902 -0.75 -0.389685 -0.670975 -0.53033 -0.53033 
C -0.670975 -0.389685 -0.75 -0.198902 -0.75 0 
C -0.75 0.198902 -0.670975 0.389685 -0.53033 0.53033 
C -0.389685 0.670975 -0.198902 0.75 0 0.75 
z
" style="stroke: #ffffff; stroke-width: 0.75"/>
    </defs>
    <g clip-path="url(#p2772dc4c45)">
     <use xlink:href="#md1d006b5fd" x="115.363636" y="112.3216" style="fill: #ffafdb; stroke: #ffffff; stroke-width: 0.75"/>
     <use xlink:href="#md1d006b5fd" x="163.675325" y="113.511129" style="fill: #ffafdb; stroke: #ffffff; stroke-width: 0.75"/>
     <use xlink:href="#md1d006b5fd" x="236.142857" y="112.670707" style="fill: #ffafdb; stroke: #ffffff; stroke-width: 0.75"/>
     <use xlink:href="#md1d006b5fd" x="284.454545" y="112.670707" style="fill: #ffafdb; stroke: #ffffff; stroke-width: 0.75"/>
     <use xlink:href="#md1d006b5fd" x="332.766234" y="112.670707" style="fill: #ffafdb; stroke: #ffffff; stroke-width: 0.75"/>
     <use xlink:href="#md1d006b5fd" x="405.233766" y="112.670707" style="fill: #ffafdb; stroke: #ffffff; stroke-width: 0.75"/>
     <use xlink:href="#md1d006b5fd" x="501.857143" y="112.670707" style="fill: #ffafdb; stroke: #ffffff; stroke-width: 0.75"/>
     <use xlink:href="#md1d006b5fd" x="622.636364" y="112.670707" style="fill: #ffafdb; stroke: #ffffff; stroke-width: 0.75"/>
    </g>
   </g>
   <g id="LineCollection_6">
    <path d="M 115.363636 112.693882 
L 115.363636 111.958206 
" clip-path="url(#p2772dc4c45)" style="fill: none; stroke: #ffafdb; stroke-width: 2.5; stroke-linecap: round"/>
    <path d="M 163.675325 115.8813 
L 163.675325 111.958206 
" clip-path="url(#p2772dc4c45)" style="fill: none; stroke: #ffafdb; stroke-width: 2.5; stroke-linecap: round"/>
    <path d="M 236.142857 112.753285 
L 236.142857 112.536352 
" clip-path="url(#p2772dc4c45)" style="fill: none; stroke: #ffafdb; stroke-width: 2.5; stroke-linecap: round"/>
    <path d="M 284.454545 112.781887 
L 284.454545 112.536352 
" clip-path="url(#p2772dc4c45)" style="fill: none; stroke: #ffafdb; stroke-width: 2.5; stroke-linecap: round"/>
    <path d="M 332.766234 112.781887 
L 332.766234 112.587549 
" clip-path="url(#p2772dc4c45)" style="fill: none; stroke: #ffafdb; stroke-width: 2.5; stroke-linecap: round"/>
    <path d="M 405.233766 112.781887 
L 405.233766 112.536352 
" clip-path="url(#p2772dc4c45)" style="fill: none; stroke: #ffafdb; stroke-width: 2.5; stroke-linecap: round"/>
    <path d="M 501.857143 112.781887 
L 501.857143 112.536352 
" clip-path="url(#p2772dc4c45)" style="fill: none; stroke: #ffafdb; stroke-width: 2.5; stroke-linecap: round"/>
    <path d="M 622.636364 112.781887 
L 622.636364 112.536352 
" clip-path="url(#p2772dc4c45)" style="fill: none; stroke: #ffafdb; stroke-width: 2.5; stroke-linecap: round"/>
   </g>
   <g id="line2d_33">
    <defs>
     <path id="m18ce772c97" d="M 3 0 
L -3 -0 
" style="stroke: #ffafdb; stroke-width: 3"/>
    </defs>
    <g clip-path="url(#p2772dc4c45)">
     <use xlink:href="#m18ce772c97" x="115.363636" y="112.693882" style="fill: #ffafdb; stroke: #ffafdb; stroke-width: 3"/>
     <use xlink:href="#m18ce772c97" x="163.675325" y="115.8813" style="fill: #ffafdb; stroke: #ffafdb; stroke-width: 3"/>
     <use xlink:href="#m18ce772c97" x="236.142857" y="112.753285" style="fill: #ffafdb; stroke: #ffafdb; stroke-width: 3"/>
     <use xlink:href="#m18ce772c97" x="284.454545" y="112.781887" style="fill: #ffafdb; stroke: #ffafdb; stroke-width: 3"/>
     <use xlink:href="#m18ce772c97" x="332.766234" y="112.781887" style="fill: #ffafdb; stroke: #ffafdb; stroke-width: 3"/>
     <use xlink:href="#m18ce772c97" x="405.233766" y="112.781887" style="fill: #ffafdb; stroke: #ffafdb; stroke-width: 3"/>
     <use xlink:href="#m18ce772c97" x="501.857143" y="112.781887" style="fill: #ffafdb; stroke: #ffafdb; stroke-width: 3"/>
     <use xlink:href="#m18ce772c97" x="622.636364" y="112.781887" style="fill: #ffafdb; stroke: #ffafdb; stroke-width: 3"/>
    </g>
   </g>
   <g id="line2d_34">
    <g clip-path="url(#p2772dc4c45)">
     <use xlink:href="#m18ce772c97" x="115.363636" y="111.958206" style="fill: #ffafdb; stroke: #ffafdb; stroke-width: 3"/>
     <use xlink:href="#m18ce772c97" x="163.675325" y="111.958206" style="fill: #ffafdb; stroke: #ffafdb; stroke-width: 3"/>
     <use xlink:href="#m18ce772c97" x="236.142857" y="112.536352" style="fill: #ffafdb; stroke: #ffafdb; stroke-width: 3"/>
     <use xlink:href="#m18ce772c97" x="284.454545" y="112.536352" style="fill: #ffafdb; stroke: #ffafdb; stroke-width: 3"/>
     <use xlink:href="#m18ce772c97" x="332.766234" y="112.587549" style="fill: #ffafdb; stroke: #ffafdb; stroke-width: 3"/>
     <use xlink:href="#m18ce772c97" x="405.233766" y="112.536352" style="fill: #ffafdb; stroke: #ffafdb; stroke-width: 3"/>
     <use xlink:href="#m18ce772c97" x="501.857143" y="112.536352" style="fill: #ffafdb; stroke: #ffafdb; stroke-width: 3"/>
     <use xlink:href="#m18ce772c97" x="622.636364" y="112.536352" style="fill: #ffafdb; stroke: #ffafdb; stroke-width: 3"/>
    </g>
   </g>
   <g id="line2d_35"/>
   <g id="line2d_36"/>
   <g id="line2d_37"/>
   <g id="line2d_38"/>
   <g id="line2d_39"/>
   <g id="line2d_40"/>
   <g id="line2d_41"/>
   <g id="line2d_42"/>
   <g id="line2d_43"/>
   <g id="line2d_44"/>
   <g id="line2d_45"/>
   <g id="line2d_46"/>
   <g id="patch_3">
    <path d="M 90 128.16 
L 90 17.28 
" style="fill: none; stroke: #cccccc; stroke-width: 1.25; stroke-linejoin: miter; stroke-linecap: square"/>
   </g>
   <g id="patch_4">
    <path d="M 648 128.16 
L 648 17.28 
" style="fill: none; stroke: #cccccc; stroke-width: 1.25; stroke-linejoin: miter; stroke-linecap: square"/>
   </g>
   <g id="patch_5">
    <path d="M 90 128.16 
L 648 128.16 
" style="fill: none; stroke: #cccccc; stroke-width: 1.25; stroke-linejoin: miter; stroke-linecap: square"/>
   </g>
   <g id="patch_6">
    <path d="M 90 17.28 
L 648 17.28 
" style="fill: none; stroke: #cccccc; stroke-width: 1.25; stroke-linejoin: miter; stroke-linecap: square"/>
   </g>
   <g id="legend_1">
    <g id="patch_7">
     <path d="M 568.413281 136.059688 
L 640.3 136.059688 
Q 642.5 136.059688 642.5 133.859688 
L 642.5 24.98 
Q 642.5 22.78 640.3 22.78 
L 568.413281 22.78 
Q 566.213281 22.78 566.213281 24.98 
L 566.213281 133.859688 
Q 566.213281 136.059688 568.413281 136.059688 
z
" style="fill: #ffffff; opacity: 0.8; stroke: #cccccc; stroke-linejoin: miter"/>
    </g>
    <g id="text_19">
     <!-- Sample -->
     <g style="fill: #262626" transform="translate(584.013828 35.915625) scale(0.12 -0.12)">
      <defs>
       <path id="ArialMT-53" d="M 288 1472 
L 859 1522 
Q 900 1178 1048 958 
Q 1197 738 1509 602 
Q 1822 466 2213 466 
Q 2559 466 2825 569 
Q 3091 672 3220 851 
Q 3350 1031 3350 1244 
Q 3350 1459 3225 1620 
Q 3100 1781 2813 1891 
Q 2628 1963 1997 2114 
Q 1366 2266 1113 2400 
Q 784 2572 623 2826 
Q 463 3081 463 3397 
Q 463 3744 659 4045 
Q 856 4347 1234 4503 
Q 1613 4659 2075 4659 
Q 2584 4659 2973 4495 
Q 3363 4331 3572 4012 
Q 3781 3694 3797 3291 
L 3216 3247 
Q 3169 3681 2898 3903 
Q 2628 4125 2100 4125 
Q 1550 4125 1298 3923 
Q 1047 3722 1047 3438 
Q 1047 3191 1225 3031 
Q 1400 2872 2139 2705 
Q 2878 2538 3153 2413 
Q 3553 2228 3743 1945 
Q 3934 1663 3934 1294 
Q 3934 928 3725 604 
Q 3516 281 3123 101 
Q 2731 -78 2241 -78 
Q 1619 -78 1198 103 
Q 778 284 539 648 
Q 300 1013 288 1472 
z
" transform="scale(0.015625)"/>
       <path id="ArialMT-70" d="M 422 -1272 
L 422 3319 
L 934 3319 
L 934 2888 
Q 1116 3141 1344 3267 
Q 1572 3394 1897 3394 
Q 2322 3394 2647 3175 
Q 2972 2956 3137 2557 
Q 3303 2159 3303 1684 
Q 3303 1175 3120 767 
Q 2938 359 2589 142 
Q 2241 -75 1856 -75 
Q 1575 -75 1351 44 
Q 1128 163 984 344 
L 984 -1272 
L 422 -1272 
z
M 931 1641 
Q 931 1000 1190 694 
Q 1450 388 1819 388 
Q 2194 388 2461 705 
Q 2728 1022 2728 1688 
Q 2728 2322 2467 2637 
Q 2206 2953 1844 2953 
Q 1484 2953 1207 2617 
Q 931 2281 931 1641 
z
" transform="scale(0.015625)"/>
       <path id="ArialMT-6c" d="M 409 0 
L 409 4581 
L 972 4581 
L 972 0 
L 409 0 
z
" transform="scale(0.015625)"/>
      </defs>
      <use xlink:href="#ArialMT-53"/>
      <use xlink:href="#ArialMT-61" transform="translate(66.699219 0)"/>
      <use xlink:href="#ArialMT-6d" transform="translate(122.314453 0)"/>
      <use xlink:href="#ArialMT-70" transform="translate(205.615234 0)"/>
      <use xlink:href="#ArialMT-6c" transform="translate(261.230469 0)"/>
      <use xlink:href="#ArialMT-65" transform="translate(283.447266 0)"/>
     </g>
    </g>
    <g id="line2d_47">
     <path d="M 570.613281 47.824219 
L 581.613281 47.824219 
L 592.613281 47.824219 
" style="fill: none; stroke: #56b4e9; stroke-width: 3; stroke-linecap: round"/>
     <g>
      <use xlink:href="#m15522c5025" x="581.613281" y="47.824219" style="fill: #56b4e9; stroke: #ffffff; stroke-width: 0.75"/>
     </g>
    </g>
    <g id="text_20">
     <!-- control -->
     <g style="fill: #262626" transform="translate(601.413281 51.674219) scale(0.11 -0.11)">
      <defs>
       <path id="ArialMT-6f" d="M 213 1659 
Q 213 2581 725 3025 
Q 1153 3394 1769 3394 
Q 2453 3394 2887 2945 
Q 3322 2497 3322 1706 
Q 3322 1066 3130 698 
Q 2938 331 2570 128 
Q 2203 -75 1769 -75 
Q 1072 -75 642 372 
Q 213 819 213 1659 
z
M 791 1659 
Q 791 1022 1069 705 
Q 1347 388 1769 388 
Q 2188 388 2466 706 
Q 2744 1025 2744 1678 
Q 2744 2294 2464 2611 
Q 2184 2928 1769 2928 
Q 1347 2928 1069 2612 
Q 791 2297 791 1659 
z
" transform="scale(0.015625)"/>
       <path id="ArialMT-6e" d="M 422 0 
L 422 3319 
L 928 3319 
L 928 2847 
Q 1294 3394 1984 3394 
Q 2284 3394 2536 3286 
Q 2788 3178 2913 3003 
Q 3038 2828 3088 2588 
Q 3119 2431 3119 2041 
L 3119 0 
L 2556 0 
L 2556 2019 
Q 2556 2363 2490 2533 
Q 2425 2703 2258 2804 
Q 2091 2906 1866 2906 
Q 1506 2906 1245 2678 
Q 984 2450 984 1813 
L 984 0 
L 422 0 
z
" transform="scale(0.015625)"/>
       <path id="ArialMT-72" d="M 416 0 
L 416 3319 
L 922 3319 
L 922 2816 
Q 1116 3169 1280 3281 
Q 1444 3394 1641 3394 
Q 1925 3394 2219 3213 
L 2025 2691 
Q 1819 2813 1613 2813 
Q 1428 2813 1281 2702 
Q 1134 2591 1072 2394 
Q 978 2094 978 1738 
L 978 0 
L 416 0 
z
" transform="scale(0.015625)"/>
      </defs>
      <use xlink:href="#ArialMT-63"/>
      <use xlink:href="#ArialMT-6f" transform="translate(50 0)"/>
      <use xlink:href="#ArialMT-6e" transform="translate(105.615234 0)"/>
      <use xlink:href="#ArialMT-74" transform="translate(161.230469 0)"/>
      <use xlink:href="#ArialMT-72" transform="translate(189.013672 0)"/>
      <use xlink:href="#ArialMT-6f" transform="translate(222.314453 0)"/>
      <use xlink:href="#ArialMT-6c" transform="translate(277.929688 0)"/>
     </g>
    </g>
    <g id="line2d_48">
     <path d="M 570.613281 63.384063 
L 581.613281 63.384063 
L 592.613281 63.384063 
" style="fill: none; stroke: #d55e00; stroke-width: 3; stroke-linecap: round"/>
     <g>
      <use xlink:href="#m06c4cef6c5" x="581.613281" y="63.384063" style="fill: #d55e00; stroke: #ffffff; stroke-width: 0.75"/>
     </g>
    </g>
    <g id="text_21">
     <!-- AA -->
     <g style="fill: #262626" transform="translate(601.413281 67.234063) scale(0.11 -0.11)">
      <use xlink:href="#ArialMT-41"/>
      <use xlink:href="#ArialMT-41" transform="translate(66.699219 0)"/>
     </g>
    </g>
    <g id="line2d_49">
     <path d="M 570.613281 78.943906 
L 581.613281 78.943906 
L 592.613281 78.943906 
" style="fill: none; stroke: #e4c788; stroke-width: 3; stroke-linecap: round"/>
     <g>
      <use xlink:href="#m05aad8b41d" x="581.613281" y="78.943906" style="fill: #e4c788; stroke: #ffffff; stroke-width: 0.75"/>
     </g>
    </g>
    <g id="text_22">
     <!-- AABES -->
     <g style="fill: #262626" transform="translate(601.413281 82.793906) scale(0.11 -0.11)">
      <defs>
       <path id="ArialMT-42" d="M 469 0 
L 469 4581 
L 2188 4581 
Q 2713 4581 3030 4442 
Q 3347 4303 3526 4014 
Q 3706 3725 3706 3409 
Q 3706 3116 3547 2856 
Q 3388 2597 3066 2438 
Q 3481 2316 3704 2022 
Q 3928 1728 3928 1328 
Q 3928 1006 3792 729 
Q 3656 453 3456 303 
Q 3256 153 2954 76 
Q 2653 0 2216 0 
L 469 0 
z
M 1075 2656 
L 2066 2656 
Q 2469 2656 2644 2709 
Q 2875 2778 2992 2937 
Q 3109 3097 3109 3338 
Q 3109 3566 3000 3739 
Q 2891 3913 2687 3977 
Q 2484 4041 1991 4041 
L 1075 4041 
L 1075 2656 
z
M 1075 541 
L 2216 541 
Q 2509 541 2628 563 
Q 2838 600 2978 687 
Q 3119 775 3209 942 
Q 3300 1109 3300 1328 
Q 3300 1584 3169 1773 
Q 3038 1963 2805 2039 
Q 2572 2116 2134 2116 
L 1075 2116 
L 1075 541 
z
" transform="scale(0.015625)"/>
       <path id="ArialMT-45" d="M 506 0 
L 506 4581 
L 3819 4581 
L 3819 4041 
L 1113 4041 
L 1113 2638 
L 3647 2638 
L 3647 2100 
L 1113 2100 
L 1113 541 
L 3925 541 
L 3925 0 
L 506 0 
z
" transform="scale(0.015625)"/>
      </defs>
      <use xlink:href="#ArialMT-41"/>
      <use xlink:href="#ArialMT-41" transform="translate(66.699219 0)"/>
      <use xlink:href="#ArialMT-42" transform="translate(133.398438 0)"/>
      <use xlink:href="#ArialMT-45" transform="translate(200.097656 0)"/>
      <use xlink:href="#ArialMT-53" transform="translate(266.796875 0)"/>
     </g>
    </g>
    <g id="line2d_50">
     <path d="M 570.613281 94.50375 
L 581.613281 94.50375 
L 592.613281 94.50375 
" style="fill: none; stroke: #8c8c8c; stroke-width: 3; stroke-linecap: round"/>
     <g>
      <use xlink:href="#mec12e0a451" x="581.613281" y="94.50375" style="fill: #8c8c8c; stroke: #ffffff; stroke-width: 0.75"/>
     </g>
    </g>
    <g id="text_23">
     <!-- BES -->
     <g style="fill: #262626" transform="translate(601.413281 98.35375) scale(0.11 -0.11)">
      <use xlink:href="#ArialMT-42"/>
      <use xlink:href="#ArialMT-45" transform="translate(66.699219 0)"/>
      <use xlink:href="#ArialMT-53" transform="translate(133.398438 0)"/>
     </g>
    </g>
    <g id="line2d_51">
     <path d="M 570.613281 110.063594 
L 581.613281 110.063594 
L 592.613281 110.063594 
" style="fill: none; stroke: #009e73; stroke-width: 3; stroke-linecap: round"/>
     <g>
      <use xlink:href="#m00e8ced53a" x="581.613281" y="110.063594" style="fill: #009e73; stroke: #ffffff; stroke-width: 0.75"/>
     </g>
    </g>
    <g id="text_24">
     <!-- AAAb -->
     <g style="fill: #262626" transform="translate(601.413281 113.913594) scale(0.11 -0.11)">
      <defs>
       <path id="ArialMT-62" d="M 941 0 
L 419 0 
L 419 4581 
L 981 4581 
L 981 2947 
Q 1338 3394 1891 3394 
Q 2197 3394 2470 3270 
Q 2744 3147 2920 2923 
Q 3097 2700 3197 2384 
Q 3297 2069 3297 1709 
Q 3297 856 2875 390 
Q 2453 -75 1863 -75 
Q 1275 -75 941 416 
L 941 0 
z
M 934 1684 
Q 934 1088 1097 822 
Q 1363 388 1816 388 
Q 2184 388 2453 708 
Q 2722 1028 2722 1663 
Q 2722 2313 2464 2622 
Q 2206 2931 1841 2931 
Q 1472 2931 1203 2611 
Q 934 2291 934 1684 
z
" transform="scale(0.015625)"/>
      </defs>
      <use xlink:href="#ArialMT-41"/>
      <use xlink:href="#ArialMT-41" transform="translate(66.699219 0)"/>
      <use xlink:href="#ArialMT-41" transform="translate(133.398438 0)"/>
      <use xlink:href="#ArialMT-62" transform="translate(200.097656 0)"/>
     </g>
    </g>
    <g id="line2d_52">
     <path d="M 570.613281 125.623438 
L 581.613281 125.623438 
L 592.613281 125.623438 
" style="fill: none; stroke: #ffafdb; stroke-width: 3; stroke-linecap: round"/>
     <g>
      <use xlink:href="#md1d006b5fd" x="581.613281" y="125.623438" style="fill: #ffafdb; stroke: #ffffff; stroke-width: 0.75"/>
     </g>
    </g>
    <g id="text_25">
     <!-- Ab -->
     <g style="fill: #262626" transform="translate(601.413281 129.473438) scale(0.11 -0.11)">
      <use xlink:href="#ArialMT-41"/>
      <use xlink:href="#ArialMT-62" transform="translate(66.699219 0)"/>
     </g>
    </g>
   </g>
  </g>
 </g>
 <defs>
  <clipPath id="p2772dc4c45">
   <rect x="90" y="17.28" width="558" height="110.88"/>
  </clipPath>
 </defs>
</svg>
